name Walk2.mot
datacolumns 19
datarows 15
range 3.05500000 3.12500000
endheader

                time	   L_ground_force_vx	   L_ground_force_vy	   L_ground_force_vz	   L_ground_force_px	   L_ground_force_py	   L_ground_force_pz	   R_ground_force_vx	   R_ground_force_vy	   R_ground_force_vz	   R_ground_force_px	   R_ground_force_py	   R_ground_force_pz	   L_ground_torque_x	   L_ground_torque_y	   L_ground_torque_z	   R_ground_torque_x	   R_ground_torque_y	   R_ground_torque_z	
          3.05500000	         32.02205609	        962.09173090	         68.59048381	         -0.28931297	          0.00000000	         -0.06615581	         -0.01235034	          0.30729698	          0.02508335	          0.00012655	          0.00000000	          0.00014006	          0.00000000	          0.33966468	          0.00000000	          0.00000000	          0.00688277	          0.00000000	
          3.06000000	         33.85452658	        966.80027781	         69.49939546	         -0.28749248	          0.00000000	         -0.06620404	         -0.01931885	          0.38981705	          0.02952361	          0.00014841	          0.00000000	          0.00016289	          0.00000000	          0.38910649	          0.00000000	          0.00000000	          0.00931551	          0.00000000	
          3.06500000	         35.69395559	        971.24222730	         70.39054810	         -0.28565698	          0.00000000	         -0.06624757	         -0.02780286	          0.47042177	          0.03280657	          0.00016419	          0.00000000	          0.00017840	          0.00000000	          0.44255185	          0.00000000	          0.00000000	          0.01196022	          0.00000000	
          3.07000000	         37.56911881	        975.45096977	         71.25184955	         -0.28381962	          0.00000000	         -0.06628407	         -0.03760377	          0.53809893	          0.03387999	          0.00016856	          0.00000000	          0.00018059	          0.00000000	          0.49865091	          0.00000000	          0.00000000	          0.01460930	          0.00000000	
          3.07500000	         39.50879966	        979.45214725	         72.07523843	         -0.28199347	          0.00000000	         -0.06631167	         -0.04824952	          0.57727062	          0.03137549	          0.00015458	          0.00000000	          0.00016173	          0.00000000	          0.55569224	          0.00000000	          0.00000000	          0.01693847	          0.00000000	
          3.08000000	         41.53904003	        983.25687303	         72.85509940	         -0.28019116	          0.00000000	         -0.06632974	         -0.05889976	          0.56716047	          0.02360055	          0.00011371	          0.00000000	          0.00011237	          0.00000000	          0.61186446	          0.00000000	          0.00000000	          0.01848156	          0.00000000	
          3.08500000	         43.68169420	        986.86263558	         73.58761600	         -0.27842450	          0.00000000	         -0.06633790	         -0.06824354	          0.48144810	          0.00856587	          0.00003596	          0.00000000	          0.00002155	          0.00000000	          0.66542913	          0.00000000	          0.00000000	          0.01860851	          0.00000000	
          3.09000000	         45.95341707	        990.25875439	         74.27051937	         -0.27670414	          0.00000000	         -0.06633419	         -0.07439768	          0.28841390	         -0.01593534	         -0.00008972	          0.00000000	         -0.00012273	          0.00000000	          0.71497664	          0.00000000	          0.00000000	          0.01651153	          0.00000000	
          3.09500000	         48.36504422	        993.43009684	         74.90245358	         -0.27503891	          0.00000000	         -0.06631543	         -0.07481901	         -0.04816925	         -0.05217674	         -0.00027464	          0.00000000	         -0.00033259	          0.00000000	          0.75969686	          0.00000000	          0.00000000	          0.01120521	          0.00000000	
          3.10000000	         50.92095867	        996.35667002	         75.48391384	         -0.27343552	          0.00000000	         -0.06627794	         -0.06624874	         -0.56708956	         -0.10225599	         -0.00052912	          0.00000000	         -0.00061882	          0.00000000	          0.79940985	          0.00000000	          0.00000000	          0.00154872	          0.00000000	
          3.10500000	         53.62099097	        999.01657032	         76.01625358	         -0.27189885	          0.00000000	         -0.06621874	         -0.04471410	         -1.30634530	         -0.16773752	         -0.00086070	          0.00000000	         -0.00098884	          0.00000000	          0.83441127	          0.00000000	          0.00000000	         -0.01370042	          0.00000000	
          3.11000000	         56.46169814	       1001.39308031	         76.50044995	         -0.27043295	          0.00000000	         -0.06613581	         -0.00561891	         -2.29801664	         -0.24916134	         -0.00127161	          0.00000000	         -0.00144389	          0.00000000	          0.86503853	          0.00000000	          0.00000000	         -0.03578996	          0.00000000	
          3.11500000	         59.43901356	       1003.47942771	         76.93540881	         -0.26904139	          0.00000000	         -0.06602827	          0.05603830	         -3.56099883	         -0.34540341	         -0.00175556	          0.00000000	         -0.00197542	          0.00000000	          0.89160051	          0.00000000	          0.00000000	         -0.06582204	          0.00000000	
          3.12000000	         62.55047778	       1005.27741828	         77.31788193	         -0.26772739	          0.00000000	         -0.06589554	          0.14527420	         -5.09129649	         -0.45288341	         -0.00229369	          0.00000000	         -0.00256065	          0.00000000	          0.91416070	          0.00000000	          0.00000000	         -0.10453575	          0.00000000	
          3.12500000	         65.79467286	       1006.79731690	         77.64289766	         -0.26649341	          0.00000000	         -0.06573811	          0.26651047	         -6.84971178	         -0.56463229	         -0.00284998	          0.00000000	         -0.00315745	          0.00000000	          0.93259834	          0.00000000	          0.00000000	         -0.15201293	          0.00000000	
